<?xml version="1.0" encoding="iso-8859-1"?>
<!-- Generator: Adobe Illustrator 16.0.0, SVG Export Plug-In . SVG Version: 6.00 Build 0)  -->
<!DOCTYPE svg PUBLIC "-//W3C//DTD SVG 1.1//EN" "http://www.w3.org/Graphics/SVG/1.1/DTD/svg11.dtd">
<svg version="1.1" id="Capa_1" xmlns="http://www.w3.org/2000/svg" xmlns:xlink="http://www.w3.org/1999/xlink" x="0px" y="0px"
	 width="50px" height="50px" viewBox="0 0 557.406 557.405" style="enable-background:new 0 0 557.406 557.405;"
	 xml:space="preserve">
    <style>
     g{
        /*
            Old Style
            width: 557.406px
            height: 557.405px
        */
        fill: #3fad46;
     }
     </style>
<g>
	<g>
		<path d="M246.604,276.23l-4.8,0.077c0,0-17.375-1.311-28.707,6.665c-11.332,7.975,27.846,20.339,27.846,20.339l3.003,0.784
			l3.137-0.707c0,0,39.149-12.441,27.808-20.416C263.549,275.006,246.604,276.23,246.604,276.23z"/>
		<circle cx="293.499" cy="251.702" r="9.868"/>
		<circle cx="192.738" cy="251.702" r="9.868"/>
		<path d="M333.594,232.233c-8.262,0.306-7.602,50.565-6.637,79.569c22.521-14.612,49.295-23.189,78.088-23.189
			c15.539,0,30.466,2.544,44.494,7.124c2.438-53.368-0.086-118.116-15.186-187.186c-1.329-6.082-2.18-16.524-1.778-22.74
			l4.408-69.309c0.393-6.206-3.279-8.3-8.214-4.504l-32.78,25.149c-4.935,3.796-12.661,3.433-17.251-0.756L350.586,10.67
			c-4.6-4.198-12.153-4.322-16.877-0.277l-37.428,32.072c-4.725,4.045-12.049,3.691-16.361-0.793L246.843,7.275
			c-4.312-4.485-11.303-4.485-15.616,0L198.15,41.672c-4.312,4.485-11.169,4.36-15.31-0.287L149.152,3.661
			c-4.141-4.638-11.14-4.905-15.616-0.593L97.18,38.076c-4.485,4.313-12.297,4.982-17.442,1.492L38.017,11.301
			c-5.154-3.49-7.163-2.812-5.078,3.05c4.59,13.005,11.198,40.258,11.111,68.946h244.887c6.225,0,11.264,8.119,11.264,14.344
			s-5.049,14.344-11.264,14.344H42.855c-0.201,0-0.287,2.008-0.545,4.112c-3.309,26.488-32.608,98.016,1.788,304.977
			c1.023,6.139,1.664,15.653,1.329,21.859c-1.09,20.368-3.806,63.18-8.262,87.01c-1.147,6.12,1.482,7.908,6.56,4.322l47.812-33.813
			c5.087-3.586,12.393-2.62,16.323,2.209l28.611,35.104c3.93,4.829,10.385,4.886,14.42,0.152l30.189-35.438
			c4.036-4.733,10.261-4.494,13.914,0.545l27.684,38.231c3.653,5.039,10.174,5.556,14.573,1.156l38.604-38.604
			c0.898-0.898,1.96-1.482,3.031-2.008c-9.18-16.658-15.156-35.305-17.088-55.128H153.723c-6.225,0-11.265-3.337-11.265-9.562
			s5.049-9.562,11.265-9.562H261.34c0.908-26,8.701-50.223,21.668-70.963c-10.146,2.409-22.233,4.025-36.739,4.025h-3.356
			c-62.138,0-81.454-28.544-81.454-28.544c0-4.619,5.46-98.015-5.881-98.436c-8.396,0-3.356,37.39-3.356,37.39l-57.098-25.628
			c0,0,36.108-56.906,147.789-56.906h3.356c111.68,0,147.789,56.926,147.789,56.926l-57.098,24.862
			C336.951,270.283,341.991,232.233,333.594,232.233z"/>
		<path d="M448.392,315.627c-13.521-5.011-28.075-7.889-43.347-7.889c-67.243,0-121.922,53.215-124.58,119.809
			c-0.067,1.683-0.259,3.328-0.259,5.03c0,4.771,0.325,9.467,0.852,14.095c4.408,39.206,27.005,72.818,59.135,92.422
			c18.914,11.542,41.07,18.312,64.853,18.312c68.945,0,124.829-55.893,124.829-124.828
			C529.875,378.893,495.937,333.271,448.392,315.627z"/>
	</g>
	<g>
		<path d="M343.444,441.394c0,2.706,0.439,4.953,1.31,6.723c1.616,3.27,4.552,4.905,8.798,4.905c2.61,0,4.887-0.899,6.828-2.688
			c1.94-1.788,2.916-4.36,2.916-7.727c0-4.456-1.798-7.42-5.394-8.921c-2.056-0.842-5.278-1.263-9.687-1.263v-9.524
			c4.312-0.066,7.325-0.478,9.027-1.262c2.945-1.311,4.418-3.959,4.418-7.938c0-2.582-0.756-4.686-2.257-6.302
			c-1.502-1.616-3.624-2.429-6.359-2.429c-3.127,0-5.432,0.995-6.913,2.983c-1.482,1.989-2.19,4.657-2.123,7.985h-12.422
			c0.124-3.366,0.698-6.561,1.73-9.572c1.081-2.64,2.792-5.088,5.126-7.335c1.75-1.587,3.806-2.802,6.196-3.643
			c2.4-0.842,5.346-1.263,8.816-1.263c6.474,0,11.695,1.674,15.654,5.011c3.968,3.356,5.947,7.841,5.947,13.474
			c0,3.987-1.186,7.354-3.547,10.089c-1.492,1.711-3.051,2.888-4.667,3.499c1.215,0,2.965,1.043,5.23,3.127
			c3.386,3.146,5.088,7.44,5.088,12.891c0,5.728-1.979,10.768-5.948,15.1c-3.959,4.351-9.83,6.521-17.604,6.521
			c-9.582,0-16.237-3.127-19.967-9.381c-1.96-3.338-3.05-7.688-3.271-13.072h13.072V441.394z"/>
		<path d="M387.106,393.581h13.072v37.131l16.782-19.201h16.543l-18.235,18.962l18.943,31.69h-16.189l-12.336-21.735l-5.508,5.728
			v16.018h-13.072V393.581L387.106,393.581z"/>
		<path d="M465.605,411.233c3.231,1.339,5.843,3.796,7.831,7.372v-7.334h12.977v48.281c0,6.579-1.1,11.522-3.318,14.851
			c-3.796,5.737-11.083,8.587-21.85,8.587c-6.513,0-11.811-1.271-15.922-3.825c-4.112-2.553-6.378-6.368-6.818-11.437h14.478
			c0.373,1.559,0.985,2.678,1.817,3.366c1.425,1.214,3.844,1.816,7.238,1.816c4.791,0,8.004-1.606,9.62-4.81
			c1.052-2.056,1.587-5.508,1.587-10.366v-3.271c-1.281,2.181-2.639,3.816-4.111,4.906c-2.64,2.018-6.092,3.031-10.318,3.031
			c-6.54,0-11.752-2.295-15.663-6.885c-3.911-4.591-5.861-10.815-5.861-18.657c0-7.563,1.874-13.923,5.642-19.067
			c3.768-5.154,9.094-7.736,15.998-7.736C461.483,410.066,463.702,410.459,465.605,411.233z M470.127,447.714
			c2.143-2.343,3.213-6.091,3.213-11.226c0-4.82-1.014-8.502-3.04-11.017c-2.037-2.524-4.753-3.786-8.167-3.786
			c-4.647,0-7.851,2.189-9.629,6.578c-0.928,2.334-1.396,5.212-1.396,8.636c0,2.964,0.497,5.594,1.482,7.889
			c1.798,4.294,5.021,6.445,9.677,6.445C465.375,451.252,467.996,450.066,470.127,447.714z"/>
	</g>
</g>
<g>
</g>
<g>
</g>
<g>
</g>
<g>
</g>
<g>
</g>
<g>
</g>
<g>
</g>
<g>
</g>
<g>
</g>
<g>
</g>
<g>
</g>
<g>
</g>
<g>
</g>
<g>
</g>
<g>
</g>
</svg>
