<?xml version="1.0" encoding="iso-8859-1"?>
<!-- Generator: Adobe Illustrator 16.0.0, SVG Export Plug-In . SVG Version: 6.00 Build 0)  -->
<!DOCTYPE svg PUBLIC "-//W3C//DTD SVG 1.1//EN" "http://www.w3.org/Graphics/SVG/1.1/DTD/svg11.dtd">
<svg version="1.1" id="Capa_1" xmlns="http://www.w3.org/2000/svg" xmlns:xlink="http://www.w3.org/1999/xlink" x="0px" y="0px"
	 width="250px" height="250px" viewBox="0 0 554.645 554.645" style="enable-background:new 0 0 554.645 554.645;"
	 xml:space="preserve">
	  <style>
     g{
        /*
            Old Style
            width: 554.645px
            height: 554.645px
        */
        fill: #d9534f;
     }
     </style>
<g>
	<g>
		<path d="M383.016,331.891l39.828-17.911c-13.473-3.117-26.076-8.463-37.465-15.615
			C385.369,314.343,383.016,331.891,383.016,331.891z"/>
		<path d="M95.749,274.143c17.958,0.66,9.314,144.106,9.314,151.412c0,0,30.59,39.044,128.998,39.044h5.317
			c98.417,0,129.007-39.216,129.007-39.216c0-5.909-5.641-101.554,1.684-138.331c-23.256-20.177-38.938-48.836-42.027-81.176
			c-25.494-5.565-54.879-9.027-88.654-9.027h-5.316C57.184,196.849,0,291.174,0,291.174l90.432,41.845
			C90.432,333.019,82.448,274.143,95.749,274.143z M314.195,289.739c8.635,0,15.625,7,15.625,15.626c0,8.625-7,15.625-15.625,15.625
			s-15.625-7-15.625-15.625C298.57,296.739,305.561,289.739,314.195,289.739z M186.851,354.908
			c17.958-12.632,45.47-10.557,45.47-10.557l7.602-0.125c0,0,26.833-1.95,44.79,10.682c17.959,12.632-44.044,32.331-44.044,32.331
			l-4.963,1.118l-4.762-1.243C230.944,387.124,168.893,367.54,186.851,354.908z M154.597,289.739c8.635,0,15.625,7,15.625,15.626
			c0,8.625-7,15.625-15.625,15.625c-8.635,0-15.625-7-15.625-15.625C138.972,296.739,145.971,289.739,154.597,289.739z"/>
		<path d="M450.604,298.125c2.84,0,5.643-0.201,8.426-0.421c53.512-4.303,95.615-48.998,95.615-103.619
			c0-57.461-46.58-104.04-104.041-104.04s-104.039,46.579-104.039,104.04c0,5.738,0.582,11.332,1.482,16.82
			C356.107,260.344,398.891,298.125,450.604,298.125z M418.809,176.567c-3.738-3.739-3.738-9.792,0-13.521
			c3.738-3.739,9.791-3.739,13.521,0l20.291,20.282l20.283-20.282c3.738-3.739,9.791-3.739,13.521,0
			c3.738,3.739,3.738,9.792,0,13.521l-20.283,20.282l20.283,20.282c3.738,3.739,3.738,9.792,0,13.521
			c-3.74,3.739-9.793,3.739-13.521,0l-20.283-20.282l-20.281,20.282c-3.738,3.739-9.793,3.739-13.521,0
			c-3.738-3.739-3.738-9.792,0-13.521l20.281-20.282L418.809,176.567z"/>
	</g>
</g>
<g>
</g>
<g>
</g>
<g>
</g>
<g>
</g>
<g>
</g>
<g>
</g>
<g>
</g>
<g>
</g>
<g>
</g>
<g>
</g>
<g>
</g>
<g>
</g>
<g>
</g>
<g>
</g>
<g>
</g>
</svg>
